<svg width="16" height="16" fill="none" xmlns="http://www.w3.org/2000/svg"><path d="M5.96 12.47a6.381 6.381 0 0 0 6.42-6.42v-.295A4.7 4.7 0 0 0 13.5 4.59c-.412.18-.848.3-1.295.355a2.28 2.28 0 0 0 1-1.25c-.441.264-.925.45-1.43.55A2.26 2.26 0 0 0 7.925 6.3a6.395 6.395 0 0 1-4.65-2.355 2.255 2.255 0 0 0 .7 3 2.235 2.235 0 0 1-1-.28v.025A2.265 2.265 0 0 0 4.75 8.915a2.265 2.265 0 0 1-1 .04A2.255 2.255 0 0 0 5.84 10.5a4.525 4.525 0 0 1-2.805 1 4.889 4.889 0 0 1-.535-.045 6.385 6.385 0 0 0 3.46 1" fill="#413DEE"/></svg>