<svg width="195" height="11" fill="none" xmlns="http://www.w3.org/2000/svg"><path d="M7.126.2h1.778L5.362 5.478V10h-1.47V5.478L.336.2H2.1l2.464 3.668h.112L7.126.2Zm24.44 8.498c-.923.961-2.09 1.442-3.5 1.442-1.409 0-2.58-.476-3.513-1.428-.934-.961-1.4-2.165-1.4-3.612 0-1.437.466-2.637 1.4-3.598C25.486.541 26.657.06 28.067.06c1.4 0 2.567.48 3.5 1.442.933.961 1.4 2.16 1.4 3.598 0 1.437-.467 2.637-1.4 3.598Zm-5.95-.966c.654.7 1.47 1.05 2.45 1.05.98 0 1.793-.35 2.437-1.05.644-.71.966-1.587.966-2.632 0-1.045-.327-1.918-.98-2.618-.644-.71-1.451-1.064-2.422-1.064-.98 0-1.797.355-2.45 1.064-.644.7-.966 1.573-.966 2.618s.322 1.923.966 2.632ZM56.634.2v6.062c0 1.25-.355 2.212-1.065 2.884-.7.663-1.633.994-2.8.994-1.166 0-2.109-.331-2.828-.994-.718-.672-1.078-1.633-1.078-2.884V.2h1.47v5.992c0 .83.224 1.47.672 1.918.449.448 1.037.672 1.765.672.727 0 1.306-.22 1.736-.658.438-.448.657-1.092.657-1.932V.2h1.47ZM80.106 10H78.51l-2.268-4.004h-1.82V10H72.98V.2h3.626c.942 0 1.689.257 2.24.77.56.513.84 1.195.84 2.044 0 .681-.182 1.255-.546 1.722-.355.467-.85.798-1.484.994l2.45 4.27Zm-5.684-8.526v3.248h1.988c.56 0 .998-.15 1.316-.448.326-.299.49-.695.49-1.19 0-.504-.164-.896-.49-1.176-.318-.29-.756-.434-1.316-.434h-1.988Zm40.55 7.196h4.998V10h-6.44V.2h1.442v8.47Zm28.103.028c-.924.961-2.091 1.442-3.5 1.442-1.41 0-2.581-.476-3.514-1.428-.934-.961-1.4-2.165-1.4-3.612 0-1.437.466-2.637 1.4-3.598.933-.961 2.104-1.442 3.514-1.442 1.4 0 2.566.48 3.5 1.442.933.961 1.4 2.16 1.4 3.598 0 1.437-.467 2.637-1.4 3.598Zm-5.95-.966c.653.7 1.47 1.05 2.45 1.05.98 0 1.792-.35 2.436-1.05.644-.71.966-1.587.966-2.632 0-1.045-.327-1.918-.98-2.618-.644-.71-1.452-1.064-2.422-1.064-.98 0-1.797.355-2.45 1.064-.644.7-.966 1.573-.966 2.618s.322 1.923.966 2.632Zm27.657-2.912h4.27V10h-1.176l-.154-1.064h-.098c-.775.803-1.792 1.204-3.052 1.204-1.381 0-2.487-.453-3.318-1.358-.821-.915-1.232-2.095-1.232-3.542 0-1.493.453-2.73 1.358-3.71s2.077-1.47 3.514-1.47c1.129 0 2.053.28 2.772.84.728.56 1.167 1.279 1.316 2.156H167.4a2.3 2.3 0 0 0-.91-1.19c-.429-.299-.961-.448-1.596-.448-1.008 0-1.825.36-2.45 1.078-.616.71-.924 1.62-.924 2.73 0 1.055.289 1.918.868 2.59.579.663 1.367.994 2.366.994.803 0 1.475-.191 2.016-.574.551-.392.826-.947.826-1.666v-.574h-2.814V4.82Zm28.509 3.878c-.924.961-2.09 1.442-3.5 1.442-1.409 0-2.58-.476-3.514-1.428-.933-.961-1.4-2.165-1.4-3.612 0-1.437.467-2.637 1.4-3.598.934-.961 2.105-1.442 3.514-1.442 1.4 0 2.567.48 3.5 1.442.934.961 1.4 2.16 1.4 3.598 0 1.437-.466 2.637-1.4 3.598Zm-5.95-.966c.654.7 1.47 1.05 2.45 1.05.98 0 1.792-.35 2.436-1.05.644-.71.966-1.587.966-2.632 0-1.045-.326-1.918-.98-2.618-.644-.71-1.451-1.064-2.422-1.064-.98 0-1.796.355-2.45 1.064-.644.7-.966 1.573-.966 2.618s.322 1.923.966 2.632Z" fill="#141414"/></svg>