<svg width="16" height="16" fill="none" xmlns="http://www.w3.org/2000/svg"><path fill-rule="evenodd" clip-rule="evenodd" d="M6.286 5.979h2.476v1.233c.356-.709 1.271-1.346 2.645-1.346 2.634 0 3.26 1.412 3.26 4.002v4.798H12v-4.208c0-1.475-.357-2.307-1.265-2.307-1.26 0-1.783.897-1.783 2.307v4.208H6.286V5.98Zm-4.573 8.574H4.38V5.866H1.713v8.687Zm3.049-11.52a1.687 1.687 0 0 1-.502 1.201 1.727 1.727 0 0 1-2.425 0 1.699 1.699 0 0 1-.502-1.201c0-.451.18-.883.502-1.202a1.722 1.722 0 0 1 2.425 0c.321.319.502.75.502 1.202Z" fill="#413DEE"/></svg>