<svg width="16" height="16" fill="none" xmlns="http://www.w3.org/2000/svg"><path d="M8 4.795A3.2 3.2 0 0 0 4.795 8 3.2 3.2 0 0 0 8 11.204 3.2 3.2 0 0 0 11.205 8 3.2 3.2 0 0 0 8 4.795Zm0 5.287A2.087 2.087 0 0 1 5.917 8c0-1.147.936-2.083 2.083-2.083 1.147 0 2.083.936 2.083 2.083A2.087 2.087 0 0 1 8 10.082Zm3.336-6.165a.747.747 0 1 0 0 1.497.746.746 0 0 0 .53-1.278.748.748 0 0 0-.53-.22ZM14.246 8c0-.863.009-1.718-.04-2.578-.048-1-.276-1.888-1.008-2.62-.732-.732-1.618-.959-2.618-1.007-.863-.048-1.717-.04-2.578-.04-.863 0-1.718-.008-2.578.04-1 .048-1.888.277-2.62 1.008-.732.733-.959 1.619-1.007 2.619-.048.862-.04 1.717-.04 2.578 0 .86-.008 1.717.04 2.578.048 1 .277 1.887 1.008 2.619.733.732 1.619.959 2.619 1.007.862.049 1.717.041 2.578.041.862 0 1.717.008 2.578-.04 1-.05 1.887-.277 2.618-1.008.733-.733.96-1.62 1.008-2.62.05-.86.04-1.715.04-2.577Zm-1.374 3.684a1.986 1.986 0 0 1-.472.716 2 2 0 0 1-.716.472c-.821.326-2.773.253-3.684.253-.91 0-2.864.073-3.686-.252a1.984 1.984 0 0 1-.715-.472 1.999 1.999 0 0 1-.472-.715C2.802 10.862 2.875 8.91 2.875 8s-.073-2.864.252-3.686c.114-.285.251-.497.472-.716a2.02 2.02 0 0 1 .715-.472C5.136 2.801 7.09 2.875 8 2.875s2.864-.074 3.686.251c.284.114.497.252.716.472a2 2 0 0 1 .472.716c.324.822.251 2.775.251 3.686 0 .91.073 2.862-.253 3.684Z" fill="#413DEE"/></svg>